#!OML:ASF X:\2005_08_12_Meinard\c3d\meinard.ASF
:FULLY-SPECIFIED
:DEGREES
1968
root 4.74733 16.3153 0.563616 33.2677 -84.7059 -57.7061
lowerback 42.9708 1.79373 -0.755991
upperback 10.164 0.443705 1.05453
thorax -8.94236 -0.492827 1.43769
lowerneck -12.3932 -6.00789 -2.23459
upperneck -0.955432 -8.16178 8.77849
head 2.37903 -3.88879 2.77093
rclavicle 7.55382e-015 -1.66979e-014
rhumerus -17.4204 16.1816 -88.6872
rradius 109.629
rwrist 23.0483
rhand -8.33528 -13.5429
rfingers 7.12502
rthumb 17.5862 -42.7675
lclavicle 7.55382e-015 -1.66979e-014
lhumerus -17.7153 -17.8792 89.0149
lradius 64.6901
lwrist -189.683
lhand -12.9885 7.73614
lfingers 7.12502
lthumb 13.1042 37.3044
rfemur -179.128 -178.456 195.073
rtibia 42.4418
rfoot 165.851 171.521
rtoes 9.06376
lfemur -173.514 175.616 -191.837
ltibia 46.0711
lfoot -20.1252 25.9327
ltoes 18.8001
1969
root 4.76225 16.326 0.567235 33.85 -84.8106 -58.2302
lowerback 42.6895 1.74677 -0.791418
upperback 10.1682 0.386351 1.07078
thorax -8.8557 -0.515472 1.49637
lowerneck -12.3931 -5.94105 -2.43539
upperneck -0.854872 -8.04641 8.7626
head 2.41643 -3.82732 2.81003
rclavicle -7.15625e-015 -7.95139e-016
rhumerus -18.0642 16.1314 -89.4225
rradius 109.4
rwrist 23.1598
rhand -8.31658 -13.4763
rfingers 7.12502
rthumb 17.6042 -42.6993
lclavicle -7.15625e-015 -7.95139e-016
lhumerus -17.7104 -17.9476 89.0682
lradius 64.5965
lwrist -189.786
lhand -12.9956 7.74685
lfingers 7.12502
lthumb 13.0974 37.3156
rfemur -178.867 -178.216 195.134
rtibia 42.7579
rfoot 165.415 171.764
rtoes 8.59507
lfemur -173.492 175.808 -192.054
ltibia 45.867
lfoot -20.0023 26.1992
ltoes 18.5973
1970
root 4.77607 16.3372 0.568409 34.226 -84.9253 -58.543
lowerback 42.4077 1.7059 -0.83399
upperback 10.1597 0.332975 1.0634
thorax -8.78221 -0.534634 1.53153
lowerneck -12.3715 -5.88159 -2.58434
upperneck -0.753172 -7.94736 8.72828
head 2.44719 -3.77507 2.83281
rclavicle 0 1.11319e-014
rhumerus -18.7509 16.076 -90.1679
rradius 109.144
rwrist 23.2708
rhand -8.3881 -13.4269
rfingers 7.12502
rthumb 17.5354 -42.656
lclavicle 0 1.11319e-014
lhumerus -17.7445 -18.0436 89.0878
lradius 64.5211
lwrist -189.864
lhand -13.0373 7.80162
lfingers 7.12502
lthumb 13.0573 37.3729
rfemur -178.611 -178.045 195.191
rtibia 43.0321
rfoot 165.035 171.935
rtoes 8.14643
lfemur -173.47 176.01 -192.289
ltibia 45.6607
lfoot -19.8899 26.4584
ltoes 18.4904
1971
root 4.78878 16.3478 0.566707 34.3367 -85.0431 -58.5887
lowerback 42.1158 1.67563 -0.911575
upperback 10.1585 0.279076 1.06651
thorax -8.69719 -0.554685 1.59596
lowerneck -12.3819 -5.82821 -2.78794
upperneck -0.641689 -7.85053 8.72278
head 2.49184 -3.72237 2.87475
rclavicle -5.1684e-015 -4.37326e-015
rhumerus -19.3944 16.0013 -90.8706
rradius 108.846
rwrist 23.4043
rhand -8.4436 -13.3392
rfingers 7.12502
rthumb 17.482 -42.5732
lclavicle -5.1684e-015 -4.37326e-015
lhumerus -17.7571 -18.0353 89.1457
lradius 64.4135
lwrist -190.032
lhand -13.107 7.79702
lfingers 7.12502
lthumb 12.9901 37.3726
rfemur -178.356 -177.886 195.248
rtibia 43.2806
rfoot 164.719 171.966
rtoes 8.0772
lfemur -173.446 176.192 -192.523
ltibia 45.4449
lfoot -19.7586 26.7154
ltoes 18.3699
1972
root 4.80115 16.3578 0.562384 34.4548 -85.1497 -58.6438
lowerback 41.8299 1.65385 -1.0004
upperback 10.1611 0.231336 1.07734
thorax -8.60899 -0.572621 1.67175
lowerneck -12.4106 -5.76873 -2.93193
upperneck -0.530296 -7.75182 8.67455
head 2.53387 -3.66977 2.89104
rclavicle 3.77691e-015 -4.77083e-015
rhumerus -20.0117 15.9113 -91.5342
rradius 108.502
rwrist 23.5633
rhand -8.5091 -13.214
rfingers 7.12502
rthumb 17.4189 -42.4535
lclavicle 3.77691e-015 -4.77083e-015
lhumerus -17.742 -18.0172 89.1977
lradius 64.2776
lwrist -190.221
lhand -13.1655 7.78814
lfingers 7.12502
lthumb 12.9337 37.3673
rfemur -178.092 -177.768 195.339
rtibia 43.5042
rfoot 164.433 171.904
rtoes 8.05971
lfemur -173.42 176.394 -192.735
ltibia 45.224
lfoot -19.6303 26.9457
ltoes 18.1806
1973
root 4.81234 16.3676 0.555604 34.4023 -85.2587 -58.5384
lowerback 41.543 1.64146 -1.09591
upperback 10.1693 0.192124 1.08644
thorax -8.51365 -0.587007 1.74542
lowerneck -12.4329 -5.71701 -3.05924
upperneck -0.442367 -7.66445 8.62363
head 2.56632 -3.62397 2.90282
rclavicle -7.95139e-016 1.03368e-014
rhumerus -20.6296 15.7983 -92.1657
rradius 108.143
rwrist 23.7254
rhand -8.61703 -13.0871
rfingers 7.12502
rthumb 17.3151 -42.3358
lclavicle -7.95139e-016 1.03368e-014
lhumerus -17.7226 -17.9421 89.2601
lradius 64.1214
lwrist -190.48
lhand -13.2454 7.76468
lfingers 7.12502
lthumb 12.8567 37.3487
rfemur -177.819 -177.647 195.425
rtibia 43.7132
rfoot 164.125 171.794
rtoes 8.0292
lfemur -173.377 176.592 -192.946
ltibia 44.9976
lfoot -19.5031 27.1727
ltoes 18.097
1974
root 4.8229 16.3776 0.546714 34.058 -85.3744 -58.1278
lowerback 41.2596 1.63757 -1.21335
upperback 10.1613 0.156422 1.08651
thorax -8.43676 -0.598313 1.81936
lowerneck -12.4329 -5.66783 -3.15827
upperneck -0.356593 -7.58398 8.56475
head 2.59238 -3.58241 2.90667
rclavicle 6.95746e-015 1.39149e-014
rhumerus -21.2556 15.6435 -92.7712
rradius 107.724
rwrist 23.9381
rhand -8.72642 -12.8871
rfingers 7.12502
rthumb 17.2098 -42.145
lclavicle 6.95746e-015 1.39149e-014
lhumerus -17.7071 -17.8184 89.3345
lradius 63.9443
lwrist -190.782
lhand -13.3744 7.68959
lfingers 7.12502
lthumb 12.7323 37.2814
rfemur -177.558 -177.553 195.503
rtibia 43.906
rfoot 163.798 171.643
rtoes 8.04442
lfemur -173.349 176.8 -193.173
ltibia 44.7739
lfoot -19.3896 27.3868
ltoes 17.9179
1975
root 4.83275 16.3867 0.53569 33.67 -85.4872 -57.6812
lowerback 40.9772 1.63928 -1.34165
upperback 10.165 0.123469 1.09938
thorax -8.34646 -0.609802 1.91136
lowerneck -12.4838 -5.61977 -3.28411
upperneck -0.254241 -7.50202 8.51433
head 2.63529 -3.53861 2.91752
rclavicle 8.94531e-015 1.23246e-014
rhumerus -21.8482 15.5226 -93.3146
rradius 107.309
rwrist 24.1235
rhand -8.82539 -12.733
rfingers 7.12502
rthumb 17.1145 -41.9992
lclavicle 8.94531e-015 1.23246e-014
lhumerus -17.6722 -17.661 89.4034
lradius 63.7551
lwrist -191.067
lhand -13.5369 7.63341
lfingers 7.12502
lthumb 12.5756 37.2349
rfemur -177.283 -177.516 195.602
rtibia 44.0872
rfoot 163.443 171.445
rtoes 7.91169
lfemur -173.313 176.981 -193.375
ltibia 44.5502
lfoot -19.2697 27.5777
ltoes 17.8363
1976
root 4.8417 16.3947 0.522823 33.1167 -85.5788 -57.0712
lowerback 40.7009 1.63628 -1.46267
upperback 10.1636 0.0889138 1.11099
thorax -8.26258 -0.621715 1.99891
lowerneck -12.5407 -5.56677 -3.32975
upperneck -0.143174 -7.42335 8.42453
head 2.6761 -3.49727 2.89966
rclavicle 1.13307e-014 7.15625e-015
rhumerus -22.425 15.3791 -93.8412
rradius 106.852
rwrist 24.3783
rhand -8.88603 -12.6231
rfingers 7.12502
rthumb 17.0561 -41.8944
lclavicle 1.13307e-014 7.15625e-015
lhumerus -17.6572 -17.4094 89.4951
lradius 63.5242
lwrist -191.446
lhand -13.6762 7.61078
lfingers 7.12502
lthumb 12.4413 37.2205
rfemur -176.998 -177.466 195.712
rtibia 44.2554
rfoot 163.064 171.228
rtoes 7.70155
lfemur -173.282 177.168 -193.555
ltibia 44.3373
lfoot -19.136 27.7433
ltoes 17.7352
